<svg width="16" height="16" viewBox="-.25 -1.25 16 16" fill="none" xmlns="http://www.w3.org/2000/svg">
<path d="M12.3733 0C12.5292 0 12.6739 0.0751371 12.7637 0.199176L12.7988 0.255253L15.3745 5.08487L15.4021 5.1507L15.4095 5.175L15.4205 5.22469L15.4265 5.28126L15.4251 5.34516L15.4269 5.30357C15.4269 5.37114 15.413 5.43549 15.3879 5.49392L15.3694 5.53224L15.3433 5.57505L15.3094 5.61909L8.09827 13.953C8.03392 14.0394 7.94578 14.0964 7.85006 14.1238L7.81278 14.1328L7.75016 14.1415L7.71249 14.1429L7.64782 14.1385L7.59311 14.1281L7.52671 14.1063L7.51018 14.0985C7.45213 14.0728 7.39878 14.0346 7.35416 13.9844L0.108077 5.60976L0.0681493 5.55345L0.03735 5.4936L0.0150556 5.42976L0.000179938 5.34549L0 5.26359L0.0095528 5.20014L0.0157177 5.17494L0.0375106 5.11316L0.0550864 5.07671L2.62651 0.255253C2.69983 0.117778 2.83423 0.0254572 2.98597 0.00452573L3.05193 0H12.3733ZM10.2236 5.78571H5.19969L7.71326 12.3171L10.2236 5.78571ZM4.16729 5.78571H1.53415L6.27391 11.2616L4.16729 5.78571ZM13.8892 5.78571H11.258L9.15391 11.2571L13.8892 5.78571ZM5.15662 0.963643H3.34058L1.28279 4.82143H4.12743L5.15662 0.963643ZM9.27026 0.963643H6.15434L5.12515 4.82143H10.2988L9.27026 0.963643ZM12.0841 0.963643H10.268L11.2972 4.82143H14.1405L12.0841 0.963643Z" fill="#2CBCFF"/>
</svg>
